<svg width="302" height="287" viewBox="0 0 302 287" fill="none" xmlns="http://www.w3.org/2000/svg">
<path d="M89.6869 90.4088C88.7981 128.805 133.341 168 188.941 168C244.54 168 333.083 92.3042 291.031 90.4088C210.002 86.7566 182.234 48.1968 190.359 20.8623C204.91 -28.0915 91.4369 14.8072 89.6869 90.4088Z" fill="#3F3D56"/>
<path d="M165.38 60.4621L164.711 59.9624L165.137 59.1775L164.954 59.0416L164.528 59.8265L163.859 59.3269L163.743 59.5408L164.412 60.0404L163.986 60.8253L164.169 60.9617L164.594 60.1767L165.264 60.676L165.38 60.4621Z" fill="#F9A826"/>
<path d="M215.157 117.297L214.488 116.797L214.914 116.012L214.731 115.877L214.306 116.661L213.636 116.162L213.52 116.376L214.189 116.875L213.763 117.66L213.946 117.797L214.372 117.012L215.041 117.511L215.157 117.297Z" fill="#F9A826"/>
<path d="M134.597 110.385L133.928 109.885L134.354 109.1L134.171 108.964L133.745 109.749L133.076 109.25L132.959 109.463L133.629 109.963L133.203 110.748L133.386 110.884L133.811 110.099L134.481 110.599L134.597 110.385Z" fill="#F9A826"/>
<path d="M194.854 147.251L194.184 146.751L194.61 145.966L194.428 145.83L194.002 146.615L193.333 146.115L193.216 146.329L193.886 146.829L193.46 147.614L193.642 147.75L194.068 146.965L194.737 147.465L194.854 147.251Z" fill="#F9A826"/>
<path d="M138.854 133.042L138.185 132.542L138.611 131.757L138.428 131.621L138.002 132.406L137.333 131.907L137.217 132.121L137.886 132.62L137.46 133.405L137.643 133.541L138.069 132.757L138.738 133.256L138.854 133.042Z" fill="#F9A826"/>
<path d="M273.777 114.225L273.108 113.725L273.534 112.94L273.351 112.804L272.925 113.589L272.256 113.09L272.14 113.304L272.809 113.803L272.383 114.588L272.566 114.724L272.991 113.94L273.661 114.439L273.777 114.225Z" fill="#F9A826"/>
<path d="M125.1 67.7584L124.43 67.2588L124.856 66.4739L124.674 66.338L124.248 67.1229L123.579 66.6233L123.462 66.8372L124.132 67.3368L123.706 68.1217L123.888 68.258L124.314 67.4731L124.984 67.9723L125.1 67.7584Z" fill="#F9A826"/>
<path d="M181.099 76.3908L180.162 75.6919L180.759 74.5928L180.503 74.4024L179.907 75.501L178.97 74.8017L178.807 75.1017L179.744 75.8006L179.148 76.8996L179.403 77.0905L180 75.9914L180.937 76.6907L181.099 76.3908Z" fill="white"/>
<path d="M147.369 90.9151C147.911 90.9151 148.351 90.3993 148.351 89.763C148.351 89.1268 147.911 88.611 147.369 88.611C146.826 88.611 146.386 89.1268 146.386 89.763C146.386 90.3993 146.826 90.9151 147.369 90.9151Z" fill="#F9A826"/>
<path d="M109.053 90.9151C109.596 90.9151 110.036 90.3993 110.036 89.763C110.036 89.1268 109.596 88.611 109.053 88.611C108.511 88.611 108.071 89.1268 108.071 89.763C108.071 90.3993 108.511 90.9151 109.053 90.9151Z" fill="#F9A826"/>
<path d="M175.86 48.6729C176.402 48.6729 176.842 48.1571 176.842 47.5208C176.842 46.8845 176.402 46.3687 175.86 46.3687C175.317 46.3687 174.877 46.8845 174.877 47.5208C174.877 48.1571 175.317 48.6729 175.86 48.6729Z" fill="#F9A826"/>
<path d="M166.69 118.949C167.233 118.949 167.672 118.433 167.672 117.796C167.672 117.16 167.233 116.644 166.69 116.644C166.147 116.644 165.708 117.16 165.708 117.796C165.708 118.433 166.147 118.949 166.69 118.949Z" fill="#F9A826"/>
<path d="M166.035 94.3713C166.397 94.3713 166.69 94.0274 166.69 93.6032C166.69 93.179 166.397 92.8352 166.035 92.8352C165.674 92.8352 165.38 93.179 165.38 93.6032C165.38 94.0274 165.674 94.3713 166.035 94.3713Z" fill="#F9A826"/>
<path d="M233.169 128.165C233.531 128.165 233.824 127.821 233.824 127.397C233.824 126.973 233.531 126.629 233.169 126.629C232.807 126.629 232.514 126.973 232.514 127.397C232.514 127.821 232.807 128.165 233.169 128.165Z" fill="#FF6584"/>
<path d="M132.96 86.3068C133.321 86.3068 133.615 85.963 133.615 85.5388C133.615 85.1146 133.321 84.7708 132.96 84.7708C132.598 84.7708 132.305 85.1146 132.305 85.5388C132.305 85.963 132.598 86.3068 132.96 86.3068Z" fill="#FF6584"/>
<path d="M173.895 24.0956C174.256 24.0956 174.55 23.7517 174.55 23.3275C174.55 22.9033 174.256 22.5595 173.895 22.5595C173.533 22.5595 173.24 22.9033 173.24 23.3275C173.24 23.7517 173.533 24.0956 173.895 24.0956Z" fill="#FF6584"/>
<path d="M147.041 59.8094C147.403 59.8094 147.696 59.4656 147.696 59.0414C147.696 58.6172 147.403 58.2734 147.041 58.2734C146.679 58.2734 146.386 58.6172 146.386 59.0414C146.386 59.4656 146.679 59.8094 147.041 59.8094Z" fill="#F9A826"/>
<path d="M155.228 34.0801C155.59 34.0801 155.883 33.7362 155.883 33.312C155.883 32.8879 155.59 32.544 155.228 32.544C154.866 32.544 154.573 32.8879 154.573 33.312C154.573 33.7362 154.866 34.0801 155.228 34.0801Z" fill="white"/>
<path d="M253.146 103.588C253.688 103.588 254.128 103.072 254.128 102.436C254.128 101.799 253.688 101.284 253.146 101.284C252.603 101.284 252.163 101.799 252.163 102.436C252.163 103.072 252.603 103.588 253.146 103.588Z" fill="#F9A826"/>
<path d="M187.977 107.812C188.519 107.812 188.959 107.296 188.959 106.66C188.959 106.024 188.519 105.508 187.977 105.508C187.434 105.508 186.994 106.024 186.994 106.66C186.994 107.296 187.434 107.812 187.977 107.812Z" fill="#F9A826"/>
<path d="M171.275 137.766C173.083 137.766 174.55 136.046 174.55 133.925C174.55 131.804 173.083 130.085 171.275 130.085C169.466 130.085 168 131.804 168 133.925C168 136.046 169.466 137.766 171.275 137.766Z" fill="#F9A826"/>
<path d="M210.9 93.2192C211.443 93.2192 211.883 92.7034 211.883 92.0671C211.883 91.4309 211.443 90.9151 210.9 90.9151C210.358 90.9151 209.918 91.4309 209.918 92.0671C209.918 92.7034 210.358 93.2192 210.9 93.2192Z" fill="white"/>
<g clip-path="url(#clip0_50_690)">
<path d="M179.741 102.166C191.688 102.166 201.373 92.2463 201.373 80.0095C201.373 67.7726 191.688 57.8526 179.741 57.8526C167.794 57.8526 158.109 67.7726 158.109 80.0095C158.109 92.2463 167.794 102.166 179.741 102.166Z" fill="#FFB8B8"/>
<path d="M163.595 91.0879C163.595 91.0879 167.671 122.557 161.401 126.089C155.131 129.621 198.708 129.943 198.708 129.943C198.708 129.943 188.989 102.648 193.378 94.299L163.595 91.0879Z" fill="#FFB8B8"/>
<path d="M230.528 130.102L226.904 147.005L219.241 182.767L219.012 184.725L216.367 207.399L214.608 222.461L213.428 232.579C206.257 236.354 201.059 238.961 201.059 238.961C201.059 238.961 200.612 236.665 199.891 233.727C194.858 235.273 185.544 237.837 177.652 238.349C180.526 241.63 181.847 244.712 180.055 246.987C174.648 253.845 152.327 239.479 144.52 234.122C144.338 235.404 144.269 236.701 144.314 237.996L138.339 233.29L138.931 222.461L139.928 204.139L141.181 181.161C140.786 180.177 140.455 179.168 140.19 178.139C138.36 171.474 136.139 158.165 134.436 147.005C133.065 138.023 132.035 130.433 131.818 128.818C131.788 128.607 131.773 128.499 131.773 128.499L164.847 113.53C167.197 119.113 178.172 120.791 178.172 120.791C187.265 120.15 194.393 115.238 194.393 115.238L230.528 130.102Z" fill="#D0CDE1"/>
<path d="M203.568 232.54C203.568 232.54 202.168 233.031 199.891 233.727C194.858 235.273 185.544 237.837 177.652 238.349C170.856 238.795 165.114 237.722 164.064 233.181C163.614 231.229 164.252 229.623 165.644 228.303C169.797 224.359 180.646 222.946 189.251 222.461C191.681 222.325 193.928 222.262 195.799 222.238C198.976 222.196 201.059 222.262 201.059 222.262L201.109 222.461L203.568 232.54Z" fill="#A0616A"/>
<path d="M161.745 59.0511L157.7 57.3926C157.7 57.3926 166.157 47.856 177.924 48.6853L174.614 44.9536C174.614 44.9536 182.704 41.6366 190.057 50.3438C193.923 54.921 198.396 60.3013 201.184 66.3621H205.516L203.708 70.4393L210.035 74.5165L203.541 73.7842C203.928 76.0169 203.987 78.2963 203.717 80.547C203.439 82.7984 202.317 84.8508 200.589 86.2712C200.589 86.2712 195.573 75.6364 195.573 73.9779V78.1242C195.573 78.1242 191.528 74.3925 191.528 71.9047L189.322 74.8071L188.219 70.2462L174.614 74.8071L176.82 71.0755L168.363 72.3194L171.673 67.7584C171.673 67.7584 162.113 73.1486 161.745 77.7096C161.377 82.2705 158.579 86.5923 158.579 86.5923C158.579 86.5923 151.082 65.2706 161.745 59.0511Z" fill="#2F2E41"/>
<path d="M254.041 207.812C251.838 210.258 246.378 213.943 239.759 217.932C237.297 219.415 234.676 220.942 232.002 222.461C225.622 226.086 218.941 229.677 213.428 232.579C206.256 236.354 201.059 238.961 201.059 238.961C201.059 238.961 200.611 236.665 199.891 233.727C198.926 229.795 197.473 224.712 195.958 222.461C195.905 222.383 195.852 222.31 195.799 222.238C195.358 221.644 194.913 221.298 194.475 221.298L216.367 207.399L225.827 201.391L219.012 184.726L210.463 163.821L215.623 147.005L220.809 130.102H230.528C230.528 130.102 233.746 137.297 237.862 147.33C238.477 148.831 239.112 150.395 239.759 152.01C248.225 173.101 258.78 202.554 254.041 207.812Z" fill="#D0CDE1"/>
<path d="M180.055 246.987C174.648 253.845 152.327 239.479 144.52 234.122C142.82 232.955 141.808 232.217 141.808 232.217L148.95 222.461L151.212 219.373C151.212 219.373 153.236 220.472 156.228 222.262C156.337 222.328 156.445 222.395 156.557 222.461C159.137 224.013 162.376 226.041 165.644 228.303C170.154 231.428 174.713 234.992 177.652 238.349C180.526 241.63 181.847 244.712 180.055 246.987Z" fill="#A0616A"/>
<path d="M156.228 222.262C155.429 222.259 154.632 222.326 153.845 222.461C147.082 223.651 145.088 229.921 144.52 234.122C144.338 235.404 144.269 236.701 144.314 237.996L138.339 233.29L136.163 231.576C130.924 229.704 126.255 226.381 122.207 222.461C118.696 219 115.546 215.174 112.809 211.045C110.082 206.974 107.652 202.704 105.537 198.269C104.947 197.032 104.63 195.676 104.608 194.299C104.586 192.922 104.86 191.556 105.41 190.3L112.809 173.411L123.622 148.729C123.702 148.141 123.789 147.566 123.884 147.005C126.029 134.41 131.774 128.818 131.774 128.818H136.163L139.098 147.005L142.746 169.6L140.19 178.139L134.283 197.859L139.928 204.139L156.228 222.262Z" fill="#D0CDE1"/>
<path d="M161.195 169.618L164.947 174.102C166.341 173.829 167.797 173.509 169.296 173.15L168.218 169.618L170.853 172.767C186.738 168.765 206.426 160.985 206.426 160.985C206.426 160.985 185.17 162.582 169.3 159.03C162.278 157.459 155.053 161.024 152.171 167.769C150.497 171.689 150.76 175.085 156.7 175.085C158.707 175.05 160.709 174.857 162.687 174.509L161.195 169.618Z" fill="#F9A826"/>
<path d="M246.731 243.311V245.14C246.732 245.642 246.641 246.14 246.463 246.608C246.384 246.816 246.289 247.018 246.178 247.21C245.827 247.813 245.33 248.312 244.734 248.659C244.139 249.005 243.465 249.187 242.78 249.187H111.42C110.735 249.187 110.062 249.005 109.466 248.659C108.87 248.312 108.373 247.813 108.022 247.21C107.911 247.018 107.816 246.816 107.737 246.608C107.559 246.14 107.468 245.642 107.469 245.14V243.311C107.469 242.78 107.571 242.254 107.77 241.763C107.968 241.272 108.259 240.826 108.626 240.45C108.993 240.074 109.429 239.776 109.908 239.573C110.387 239.369 110.901 239.265 111.42 239.265H118.992V238.412C118.992 238.39 118.996 238.368 119.004 238.348C119.013 238.327 119.025 238.308 119.04 238.293C119.055 238.277 119.073 238.265 119.093 238.256C119.113 238.248 119.135 238.243 119.157 238.243H123.107C123.129 238.243 123.15 238.248 123.17 238.256C123.19 238.265 123.208 238.277 123.224 238.293C123.239 238.308 123.251 238.327 123.259 238.348C123.268 238.368 123.272 238.39 123.272 238.412V239.265H125.74V238.412C125.74 238.39 125.744 238.368 125.752 238.348C125.761 238.327 125.773 238.308 125.788 238.293C125.803 238.277 125.822 238.265 125.842 238.256C125.862 238.248 125.883 238.243 125.905 238.243H129.855C129.877 238.243 129.898 238.248 129.918 238.256C129.938 238.265 129.957 238.277 129.972 238.293C129.987 238.308 129.999 238.327 130.008 238.348C130.016 238.368 130.02 238.39 130.02 238.412V239.265H132.491V238.412C132.491 238.39 132.495 238.368 132.504 238.348C132.512 238.327 132.524 238.308 132.539 238.293C132.555 238.277 132.573 238.265 132.593 238.256C132.613 238.248 132.634 238.243 132.656 238.243H136.607C136.628 238.243 136.65 238.248 136.67 238.256C136.69 238.265 136.708 238.277 136.723 238.293C136.738 238.308 136.751 238.327 136.759 238.348C136.767 238.368 136.771 238.39 136.771 238.412V239.265H139.239V238.412C139.239 238.39 139.244 238.368 139.252 238.348C139.26 238.327 139.272 238.308 139.287 238.293C139.303 238.277 139.321 238.265 139.341 238.256C139.361 238.248 139.382 238.243 139.404 238.243H143.355C143.376 238.243 143.398 238.248 143.418 238.256C143.438 238.265 143.456 238.277 143.471 238.293C143.487 238.308 143.499 238.327 143.507 238.348C143.515 238.368 143.519 238.39 143.519 238.412V239.265H145.988V238.412C145.987 238.39 145.992 238.368 146 238.348C146.008 238.327 146.02 238.308 146.036 238.293C146.051 238.277 146.069 238.265 146.089 238.256C146.109 238.248 146.131 238.243 146.152 238.243H150.103C150.125 238.243 150.146 238.248 150.166 238.256C150.186 238.265 150.204 238.277 150.219 238.293C150.235 238.308 150.247 238.327 150.255 238.348C150.263 238.368 150.268 238.39 150.268 238.412V239.265H152.739V238.412C152.739 238.39 152.743 238.368 152.751 238.348C152.759 238.327 152.772 238.308 152.787 238.293C152.802 238.277 152.82 238.265 152.84 238.256C152.86 238.248 152.882 238.243 152.903 238.243H156.854C156.876 238.243 156.897 238.248 156.917 238.256C156.937 238.265 156.955 238.277 156.971 238.293C156.986 238.308 156.998 238.327 157.006 238.348C157.015 238.368 157.019 238.39 157.019 238.412V239.265H159.487V238.412C159.487 238.39 159.491 238.368 159.499 238.348C159.508 238.327 159.52 238.308 159.535 238.293C159.55 238.277 159.568 238.265 159.588 238.256C159.608 238.248 159.63 238.243 159.652 238.243H190.598C190.62 238.243 190.641 238.248 190.661 238.256C190.681 238.265 190.699 238.277 190.715 238.293C190.73 238.308 190.742 238.327 190.75 238.348C190.759 238.368 190.763 238.39 190.763 238.412V239.265H193.234V238.412C193.234 238.39 193.238 238.368 193.246 238.348C193.254 238.327 193.267 238.308 193.282 238.293C193.297 238.277 193.315 238.265 193.335 238.256C193.355 238.248 193.377 238.243 193.398 238.243H197.349C197.393 238.244 197.434 238.262 197.465 238.293C197.496 238.325 197.513 238.368 197.514 238.412V239.265H199.982V238.412C199.982 238.39 199.986 238.368 199.994 238.348C200.003 238.327 200.015 238.308 200.03 238.293C200.045 238.277 200.064 238.265 200.084 238.256C200.104 238.248 200.125 238.243 200.147 238.243H204.097C204.119 238.243 204.14 238.248 204.16 238.256C204.18 238.265 204.199 238.277 204.214 238.293C204.229 238.308 204.241 238.327 204.25 238.348C204.258 238.368 204.262 238.39 204.262 238.412V239.265H206.73V238.412C206.73 238.39 206.734 238.368 206.743 238.348C206.751 238.327 206.763 238.308 206.778 238.293C206.794 238.277 206.812 238.265 206.832 238.256C206.852 238.248 206.873 238.243 206.895 238.243H210.846C210.867 238.243 210.889 238.248 210.909 238.256C210.929 238.265 210.947 238.277 210.962 238.293C210.977 238.308 210.99 238.327 210.998 238.348C211.006 238.368 211.01 238.39 211.01 238.412V239.265H213.481V238.412C213.481 238.39 213.485 238.368 213.494 238.348C213.502 238.327 213.514 238.308 213.529 238.293C213.545 238.277 213.563 238.265 213.583 238.256C213.603 238.248 213.624 238.243 213.646 238.243H217.597C217.64 238.244 217.681 238.262 217.712 238.294C217.742 238.325 217.759 238.368 217.758 238.412V239.265H220.229V238.412C220.229 238.39 220.234 238.368 220.242 238.348C220.25 238.327 220.262 238.308 220.278 238.293C220.293 238.277 220.311 238.265 220.331 238.256C220.351 238.248 220.373 238.243 220.394 238.243H224.345C224.367 238.243 224.388 238.248 224.408 238.256C224.428 238.265 224.446 238.277 224.461 238.293C224.477 238.308 224.489 238.327 224.497 238.348C224.505 238.368 224.51 238.39 224.51 238.412V239.265H226.978V238.412C226.978 238.39 226.982 238.368 226.99 238.348C226.998 238.327 227.011 238.308 227.026 238.293C227.041 238.277 227.059 238.265 227.079 238.256C227.099 238.248 227.121 238.243 227.142 238.243H231.093C231.115 238.243 231.136 238.248 231.156 238.256C231.176 238.265 231.194 238.277 231.21 238.293C231.225 238.308 231.237 238.327 231.245 238.348C231.254 238.368 231.258 238.39 231.258 238.412V239.265H242.78C243.299 239.265 243.813 239.369 244.292 239.573C244.772 239.776 245.207 240.074 245.574 240.45C245.941 240.826 246.232 241.272 246.431 241.763C246.629 242.254 246.731 242.78 246.731 243.311Z" fill="#3F3D56"/>
<path d="M284.929 246.608H69.3042V247.21H284.929V246.608Z" fill="#3F3D56"/>
<path d="M236.154 166.289H187.192V165.255H164.991V166.289H115.827C114.949 166.289 114.106 166.646 113.485 167.282C112.864 167.919 112.515 168.781 112.515 169.681V238.352C112.515 239.252 112.864 240.115 113.485 240.751C114.106 241.387 114.949 241.744 115.827 241.744H236.154C237.033 241.744 237.875 241.387 238.496 240.751C239.117 240.115 239.466 239.252 239.466 238.352V169.681C239.466 169.236 239.381 168.794 239.214 168.383C239.048 167.971 238.804 167.597 238.496 167.282C238.189 166.967 237.824 166.717 237.422 166.547C237.02 166.377 236.589 166.289 236.154 166.289Z" fill="#3F3D56"/>
<path d="M176.087 197.796C180.148 197.796 183.441 194.424 183.441 190.263C183.441 186.103 180.148 182.731 176.087 182.731C172.025 182.731 168.732 186.103 168.732 190.263C168.732 194.424 172.025 197.796 176.087 197.796Z" stroke="#D0CDE1" stroke-width="2" stroke-miterlimit="10"/>
<path d="M173.734 200.508C177.795 200.508 181.088 197.135 181.088 192.975C181.088 188.815 177.795 185.443 173.734 185.443C169.672 185.443 166.379 188.815 166.379 192.975C166.379 197.135 169.672 200.508 173.734 200.508Z" fill="#D0CDE1"/>
<path d="M83.4081 243.563H75.1714V252H83.4081V243.563Z" fill="#D0CDE1"/>
<path d="M78.4082 236.935V247.179H88.4099V236.935H78.4082ZM87.9745 246.733H78.8406V237.381H87.9745V246.733Z" fill="#3F3D56"/>
<path d="M274.029 243.563H265.792V252H274.029V243.563Z" fill="#D0CDE1"/>
<path d="M269.029 236.935V247.179H279.03V236.935H269.029ZM278.595 246.733H269.461V237.381H278.595V246.733Z" fill="#3F3D56"/>
<path d="M95.8067 225.043C96.0812 234.669 90.5896 238.197 83.6978 238.403C83.5378 238.408 83.3784 238.411 83.2197 238.412C82.9001 238.415 82.5836 238.409 82.2702 238.396C76.0373 238.131 71.1036 234.742 70.8483 225.789C70.5842 216.524 81.8116 204.486 82.654 203.595L82.6555 203.595C82.6875 203.561 82.7039 203.544 82.7039 203.544C82.7039 203.544 95.5322 215.417 95.8067 225.043Z" fill="#D0CDE1"/>
<path d="M83.2016 236.944L87.5795 230.276L83.2105 237.662L83.2196 238.412C82.9 238.415 82.5835 238.409 82.2701 238.396L82.4873 228.751L82.4813 228.676L82.4893 228.662L82.5101 227.75L77.7158 220.621L82.5045 227.068L82.5215 227.261L82.6855 219.973L78.5445 212.582L82.6973 218.693L82.6539 203.596L82.654 203.545L82.6554 203.595L82.9303 215.494L86.7043 210.66L82.9427 216.519L83.025 223.037L86.4979 216.675L83.0378 223.996L83.0836 227.62L88.1341 218.758L83.099 228.885L83.2016 236.944Z" fill="#3F3D56"/>
<path d="M286.427 225.043C286.701 234.669 281.21 238.197 274.318 238.403C274.158 238.408 273.999 238.411 273.84 238.412C273.52 238.415 273.204 238.409 272.89 238.396C266.657 238.131 261.724 234.742 261.468 225.789C261.204 216.524 272.432 204.486 273.274 203.595L273.276 203.595C273.308 203.561 273.324 203.544 273.324 203.544C273.324 203.544 286.152 215.417 286.427 225.043Z" fill="#D0CDE1"/>
<path d="M273.822 236.944L278.2 230.276L273.831 237.662L273.84 238.412C273.521 238.415 273.204 238.409 272.891 238.396L273.108 228.751L273.102 228.676L273.11 228.662L273.131 227.75L268.336 220.621L273.125 227.068L273.142 227.261L273.306 219.973L269.165 212.582L273.318 218.693L273.275 203.596L273.275 203.545L273.276 203.595L273.551 215.494L277.325 210.66L273.563 216.519L273.646 223.037L277.119 216.675L273.658 223.996L273.704 227.62L278.755 218.758L273.72 228.885L273.822 236.944Z" fill="#3F3D56"/>
</g>
<defs>
<clipPath id="clip0_50_690">
<rect width="234.93" height="207.667" fill="white" transform="translate(51.5068 44.3333)"/>
</clipPath>
</defs>
</svg>
