<svg width="302" height="269" viewBox="0 0 302 269" fill="none" xmlns="http://www.w3.org/2000/svg">
<g clip-path="url(#clip0_50_793)">
<path d="M77.5887 111.664C92.7149 111.664 104.977 98.1601 104.977 81.5028C104.977 64.8455 92.7149 51.342 77.5887 51.342C62.4624 51.342 50.2002 64.8455 50.2002 81.5028C50.2002 98.1601 62.4624 111.664 77.5887 111.664Z" fill="#FF6584"/>
<path d="M302 72.1738V151.502C302 166.877 299.251 182.102 293.908 196.307C288.565 210.513 280.733 223.42 270.861 234.292C260.988 245.164 249.267 253.788 236.368 259.672C223.468 265.556 209.643 268.584 195.68 268.583H0V189.255C0 146.865 20.4584 109.733 51.0987 89.1865C56.3786 85.6426 61.9312 82.6165 67.6924 80.1433C71.0828 78.6847 74.5402 77.4223 78.0504 76.3615C78.1189 76.3363 78.1906 76.3148 78.2591 76.2968C79.2962 75.9844 80.3398 75.6899 81.39 75.4133C81.4487 75.3954 81.5041 75.381 81.5628 75.3666C88.0351 73.6684 94.6378 72.6428 101.284 72.3031C102.07 72.2636 102.856 72.2313 103.649 72.2133C103.932 72.2026 104.219 72.1954 104.51 72.1954C105.11 72.181 105.713 72.1738 106.32 72.1738H302Z" fill="#3F3D56"/>
<path d="M140.89 217.463C63.2416 217.463 0.266929 240.52 0.00292969 269H281.776C281.512 240.52 218.538 217.463 140.89 217.463Z" fill="#F2F2F2"/>
<g opacity="0.1">
<path opacity="0.1" d="M114.799 256.51C129.209 256.51 140.89 252.936 140.89 248.529C140.89 244.121 129.209 240.548 114.799 240.548C100.39 240.548 88.7085 244.121 88.7085 248.529C88.7085 252.936 100.39 256.51 114.799 256.51Z" fill="black"/>
</g>
<g opacity="0.1">
<path opacity="0.1" d="M171.22 242.144C185.63 242.144 197.311 238.571 197.311 234.163C197.311 229.755 185.63 226.182 171.22 226.182C156.811 226.182 145.129 229.755 145.129 234.163C145.129 238.571 156.811 242.144 171.22 242.144Z" fill="black"/>
</g>
<g opacity="0.1">
<path opacity="0.1" d="M114.799 255.712C127.768 255.712 138.281 252.496 138.281 248.529C138.281 244.562 127.768 241.346 114.799 241.346C101.83 241.346 91.3174 244.562 91.3174 248.529C91.3174 252.496 101.83 255.712 114.799 255.712Z" fill="black"/>
</g>
<g opacity="0.1">
<path opacity="0.1" d="M171.22 241.346C184.189 241.346 194.702 238.13 194.702 234.163C194.702 230.196 184.189 226.98 171.22 226.98C158.252 226.98 147.739 230.196 147.739 234.163C147.739 238.13 158.252 241.346 171.22 241.346Z" fill="black"/>
</g>
<path d="M45.0066 106.666C46.2674 106.666 47.2895 105.541 47.2895 104.152C47.2895 102.764 46.2674 101.638 45.0066 101.638C43.7457 101.638 42.7236 102.764 42.7236 104.152C42.7236 105.541 43.7457 106.666 45.0066 106.666Z" fill="#F2F2F2"/>
<path d="M241.339 205.072C242.6 205.072 243.622 203.946 243.622 202.558C243.622 201.17 242.6 200.044 241.339 200.044C240.078 200.044 239.056 201.17 239.056 202.558C239.056 203.946 240.078 205.072 241.339 205.072Z" fill="#F2F2F2"/>
<path d="M133.715 124.264C134.976 124.264 135.998 123.139 135.998 121.75C135.998 120.362 134.976 119.236 133.715 119.236C132.454 119.236 131.432 120.362 131.432 121.75C131.432 123.139 132.454 124.264 133.715 124.264Z" fill="#F2F2F2"/>
<path d="M246.883 108.103C247.604 108.103 248.188 107.46 248.188 106.666C248.188 105.873 247.604 105.23 246.883 105.23C246.163 105.23 245.579 105.873 245.579 106.666C245.579 107.46 246.163 108.103 246.883 108.103Z" fill="#FF6584"/>
<path d="M50.2245 179.932C50.9449 179.932 51.529 179.289 51.529 178.495C51.529 177.702 50.9449 177.059 50.2245 177.059C49.504 177.059 48.9199 177.702 48.9199 178.495C48.9199 179.289 49.504 179.932 50.2245 179.932Z" fill="#FF6584"/>
<path d="M30.6566 208.779H30.0624V208.125H29.9463V208.779H29.3521V208.907H29.9463V209.561H30.0624V208.907H30.6566V208.779Z" fill="#F2F2F2"/>
<path d="M221.445 155.626H220.851V154.971H220.735V155.626H220.141V155.753H220.735V156.408H220.851V155.753H221.445V155.626Z" fill="#F2F2F2"/>
<path d="M270.691 144.851H270.097V144.197H269.981V144.851H269.387V144.979H269.981V145.634H270.097V144.979H270.691V144.851Z" fill="#F2F2F2"/>
<path d="M164.698 173.583H164.103V172.929H163.987V173.583H163.393V173.711H163.987V174.365H164.103V173.711H164.698V173.583Z" fill="#F2F2F2"/>
<path d="M256.341 177.174H255.747V176.52H255.631V177.174H255.037V177.302H255.631V177.957H255.747V177.302H256.341V177.174Z" fill="#F2F2F2"/>
<path d="M145.782 192.618H145.188V191.963H145.072V192.618H144.478V192.746H145.072V193.4H145.188V192.746H145.782V192.618Z" fill="#F2F2F2"/>
<path d="M187.527 193.336H186.933V192.682H186.817V193.336H186.223V193.464H186.817V194.118H186.933V193.464H187.527V193.336Z" fill="#F2F2F2"/>
<path d="M31.3089 132.281H30.7147V131.627H30.5986V132.281H30.0044V132.409H30.5986V133.064H30.7147V132.409H31.3089V132.281Z" fill="#F2F2F2"/>
<path d="M221.729 82.8508H220.792V103.704H221.729V82.8508Z" fill="#E6E6E6"/>
<path d="M199.512 138.288L190.887 160.173L192.575 163.27L192.012 164.302L195.949 166.574V165.335L197.449 164.922L203.824 152.121L199.512 138.288Z" fill="#E6E6E6"/>
<path d="M192.762 164.096C192.762 164.096 186.387 175.039 193.512 176.69C200.637 178.342 194.824 165.128 194.824 165.128L192.762 164.096Z" fill="#E6E6E6"/>
<path d="M201.949 159.141L199.699 167.193L198.762 177.516L197.074 181.233L198.949 197.956L201.949 201.26L203.261 217.777V225.21L206.824 232.024L202.236 239.194C202.02 239.531 201.89 239.926 201.862 240.337C201.833 240.749 201.906 241.161 202.073 241.531C202.24 241.9 202.494 242.213 202.81 242.436C203.125 242.658 203.489 242.783 203.864 242.796C204.877 242.826 206.212 242.51 207.949 241.521C213.386 238.424 213.198 235.534 213.198 235.534C213.198 235.534 216.573 235.534 216.761 232.643C216.948 229.752 214.698 209.106 214.698 209.106L212.636 200.228V176.071H213.386L213.761 196.718L215.448 204.357L215.636 207.66L218.073 240.695C218.073 240.695 228.947 243.999 229.51 241.315C230.072 238.631 225.385 236.979 225.385 236.979L228.198 230.991V219.429L227.26 216.952L225.573 200.228L228.385 196.924L229.885 194.859V178.342L228.01 171.942L227.448 166.573L224.448 158.315C224.448 158.315 210.761 153.36 201.949 159.141Z" fill="white"/>
<path d="M226.323 112.479C226.323 114.963 225.787 117.411 224.761 119.622C223.734 121.833 222.246 123.744 220.418 125.199C218.59 126.653 216.475 127.609 214.246 127.988C212.017 128.366 209.738 128.157 207.597 127.377C205.456 126.597 203.514 125.268 201.93 123.5C200.346 121.732 199.166 119.576 198.486 117.208C197.807 114.84 197.648 112.328 198.021 109.879C198.395 107.43 199.291 105.113 200.637 103.12L200.64 103.116C202.428 100.468 204.927 98.5084 207.784 97.5148C210.64 96.5213 213.709 96.5446 216.553 97.5815C219.397 98.6183 221.872 100.616 223.625 103.29C225.379 105.965 226.323 109.18 226.323 112.479Z" fill="#FFB8B8"/>
<g opacity="0.1">
<path opacity="0.1" d="M224.298 105.973L223.135 113.305C214.4 88.3346 200.505 103.673 200.265 103.942C201.701 101.815 203.603 100.123 205.793 99.0247C207.983 97.9262 210.39 97.4565 212.79 97.6593C215.19 97.8622 217.504 98.731 219.516 100.185C221.528 101.639 223.173 103.63 224.298 105.973Z" fill="black"/>
</g>
<path d="M224.673 105.147L223.51 112.479C214.775 87.509 200.88 102.847 200.64 103.116C202.076 100.989 203.978 99.2976 206.168 98.1991C208.358 97.1005 210.766 96.6308 213.165 96.8336C215.565 97.0365 217.879 97.9053 219.891 99.3591C221.903 100.813 223.548 102.804 224.673 105.147Z" fill="white"/>
<path d="M222.719 102.052L224.673 109.519C224.673 109.519 220.618 122.902 201.815 123.368L201.199 125.28L199.137 125.899L198.199 130.235L200.824 157.695C200.824 157.695 199.699 160.379 201.574 160.173C201.574 160.173 213.948 155.631 224.635 159.76C224.635 159.76 226.885 160.792 226.323 158.521C226.323 158.521 233.822 153.36 233.26 147.991C232.697 142.623 233.822 117.641 233.822 117.641C233.822 117.641 234.947 110.414 231.572 108.763C231.572 108.763 226.616 101.123 222.719 102.052Z" fill="white"/>
<path d="M218.609 154.223C218.609 154.223 206.862 155.522 210.114 162.696C213.366 169.87 219.156 156.644 219.156 156.644L218.609 154.223Z" fill="#E6E6E6"/>
<path d="M224.635 122.183C224.635 122.183 222.573 124.867 223.323 129.203C224.073 133.539 226.885 143.243 226.885 143.243L216.948 153.36L219.948 157.902L233.447 150.263L236.447 148.198C235.701 139.847 233.845 131.662 230.938 123.905L230.447 122.596C230.447 122.596 226.885 120.944 224.635 122.183Z" fill="#E6E6E6"/>
<path d="M223.698 114.853C225.613 114.853 227.166 113.143 227.166 111.034C227.166 108.924 225.613 107.214 223.698 107.214C221.782 107.214 220.229 108.924 220.229 111.034C220.229 113.143 221.782 114.853 223.698 114.853Z" fill="#E6E6E6"/>
<path d="M221.261 85.5351C222.658 85.5351 223.792 84.2872 223.792 82.7478C223.792 81.2084 222.658 79.9604 221.261 79.9604C219.863 79.9604 218.729 81.2084 218.729 82.7478C218.729 84.2872 219.863 85.5351 221.261 85.5351Z" fill="#E6E6E6"/>
<path d="M156.87 126.535H156.276V125.88H156.16V126.535H155.566V126.663H156.16V127.317H156.276V126.663H156.87V126.535Z" fill="#F2F2F2"/>
<path d="M210.356 106.423H209.762V105.768H209.646V106.423H209.052V106.551H209.646V107.205H209.762V106.551H210.356V106.423Z" fill="#F2F2F2"/>
<path d="M204.486 112.528H203.892V111.874H203.776V112.528H203.182V112.656H203.776V113.31H203.892V112.656H204.486V112.528Z" fill="#F2F2F2"/>
<path d="M181.33 97.3285C182.051 97.3285 182.635 96.6853 182.635 95.8919C182.635 95.0985 182.051 94.4553 181.33 94.4553C180.61 94.4553 180.026 95.0985 180.026 95.8919C180.026 96.6853 180.61 97.3285 181.33 97.3285Z" fill="#F2F2F2"/>
<path d="M117.068 106.018C117.068 206.235 105.625 206.235 91.5128 206.235C84.2167 206.235 77.6346 206.235 72.98 192.392C71.6418 188.413 70.4596 183.283 69.4685 176.679C67.2368 161.834 65.957 139.527 65.957 106.018C65.957 93.1324 67.3421 80.5005 69.4685 68.7021C70.4907 63.022 71.6846 57.5396 72.98 52.3107C74.5641 45.9088 76.3003 39.8893 78.0521 34.3811C79.2265 30.6775 80.4126 27.2015 81.5636 23.992C86.8815 9.17744 91.5128 0 91.5128 0C91.5128 0 117.068 50.6694 117.068 106.018Z" fill="#F2F2F2"/>
<g opacity="0.1">
<path opacity="0.1" d="M81.5632 23.9919V198.716H78.0518V34.3811C79.2262 30.6774 80.4123 27.2015 81.5632 23.9919Z" fill="black"/>
</g>
<path d="M90.7324 84.6423C98.4898 84.6423 104.778 77.7172 104.778 69.1747C104.778 60.6321 98.4898 53.707 90.7324 53.707C82.9751 53.707 76.6865 60.6321 76.6865 69.1747C76.6865 77.7172 82.9751 84.6423 90.7324 84.6423Z" fill="#3F3D56"/>
<path d="M121.555 196.783C118.432 188.317 114.422 186.856 111.801 186.983V185.612H70.834V186.983C68.2129 186.856 64.203 188.317 61.08 196.783C56.0078 210.532 64.2012 234.163 64.2012 234.163C64.2012 234.163 59.8225 201.205 74.363 200.988C75.6223 202.797 77.1675 204.341 78.9246 205.546V214.41H102.406V206.353C104.702 205.071 106.706 203.237 108.272 200.988C122.813 201.205 118.434 234.163 118.434 234.163C118.434 234.163 126.627 210.532 121.555 196.783Z" fill="#FFB8B8"/>
<path d="M275.913 72.1738H275.26C275.307 79.9527 278.144 87.3958 283.153 92.8813C288.161 98.3667 294.936 101.45 302 101.459V100.74C295.109 100.732 288.5 97.7248 283.613 92.374C278.727 87.0231 275.959 79.7623 275.913 72.1738Z" fill="#F9A826"/>
<path d="M263.846 72.1738H263.193C263.243 83.4761 267.352 94.2975 274.623 102.274C281.894 110.251 291.737 114.735 302 114.747V114.029C291.91 114.016 282.234 109.608 275.085 101.766C267.936 93.9237 263.896 83.2854 263.846 72.1738Z" fill="#F9A826"/>
<path d="M251.449 72.1738H250.797C250.878 103.19 273.815 128.394 302 128.394V127.676C274.174 127.676 251.531 102.795 251.449 72.1738Z" fill="#F9A826"/>
<path d="M90.7322 81.2051C96.7657 81.2051 101.657 75.8189 101.657 69.1747C101.657 62.5305 96.7657 57.1443 90.7322 57.1443C84.6987 57.1443 79.8076 62.5305 79.8076 69.1747C79.8076 75.8189 84.6987 81.2051 90.7322 81.2051Z" fill="#FFB8B8"/>
</g>
<defs>
<clipPath id="clip0_50_793">
<rect width="302" height="269" fill="white"/>
</clipPath>
</defs>
</svg>
