<svg width="276" height="532" viewBox="0 0 276 532" fill="none" xmlns="http://www.w3.org/2000/svg">
<g clip-path="url(#clip0_50_645)">
<path d="M419.776 222.722C398.022 262.832 356.974 272.017 323.01 258.046C311.897 253.364 301.176 246.929 291.041 238.858C285.154 234.248 279.409 229.192 273.78 223.805C272.395 222.485 271.01 221.145 269.639 219.777C268.705 218.857 267.774 217.925 266.846 216.982C255.223 205.191 244.055 192.257 233.074 179.397C205.664 147.294 177.502 114.202 143.824 98.8852C136.886 95.731 127.91 94.2555 123.619 102.73C119.897 110.087 122.169 120.504 125.319 128.396C137.003 157.629 158.212 176.087 179.441 190.28C200.669 204.474 223.155 215.974 241.609 236.726C260.063 257.478 274.151 290.461 270.376 323.755C267.123 352.447 250.876 375.758 231.985 385.917C213.095 396.07 192.027 394.655 172.39 388.063C152.753 381.463 134.111 369.95 115.16 360.028C103.734 354.037 88.7963 349.895 81.2146 363.601C74.8116 375.182 78.492 393.45 86.2893 403.089C94.0867 412.727 104.64 415.956 114.709 418.853C145.974 427.855 177.239 436.855 208.504 445.852C218.095 448.607 227.911 451.49 236.267 458.827C244.623 466.158 251.364 478.964 251.125 493.062C250.885 506.958 243.829 519.236 235.182 525.389C226.54 531.535 216.559 532.482 206.931 531.819C170.85 529.328 67.4085 446.678 42.5984 436.112C26.6562 429.33 9.2259 419.367 2.50335 397.451C-5.86683 370.167 7.90675 337.157 26.7078 324.696C45.5043 312.228 67.2957 314.99 87.7822 319.186C108.269 323.383 129.431 328.723 149.373 320.75C169.315 312.777 187.586 286.786 185.619 257.085C183.905 231.243 167.761 211.77 150.772 203.188C137.473 196.467 123.324 194.639 109.353 191.614C105.475 190.781 101.612 189.847 97.7861 188.696C87.9878 185.737 78.43 181.313 69.2675 175.498C59.6525 169.408 50.5182 161.85 42.0211 152.952C35.2438 145.865 28.9104 137.936 23.0933 129.255C22.206 127.929 21.328 126.573 20.4595 125.188C19.6334 123.861 18.8165 122.507 18.0186 121.126C7.63447 103.237 -0.0363723 81.2059 2.26408 58.5043C4.55948 35.8637 16.798 17.0134 31.3695 7.95716C39.7912 2.72511 48.875 0.383203 58.0713 0.0447778C64.7956 -0.14899 71.5181 0.548847 78.1539 2.12948C108.86 9.20933 136.998 30.7197 163.574 54.01C190.144 77.3005 216.038 102.865 244.923 119.468C273.808 136.078 306.688 143.111 335.99 128.091C365.293 113.079 389.366 72.1158 387.934 27.3286C407.369 51.4583 423.884 81.788 431.198 117.228C438.512 152.668 435.573 193.59 419.776 222.722Z" fill="#3F3D56"/>
<path d="M53.9439 348.951C55.0218 348.951 55.8956 347.691 55.8956 346.137C55.8956 344.583 55.0218 343.323 53.9439 343.323C52.866 343.323 51.9922 344.583 51.9922 346.137C51.9922 347.691 52.866 348.951 53.9439 348.951Z" fill="#FF6584"/>
<path d="M109.963 184.372C109.965 186.812 109.76 189.244 109.353 191.614C105.476 190.781 101.612 189.847 97.7862 188.697C87.9879 185.737 78.4301 181.313 69.2676 175.498C70.741 168.639 73.8714 162.769 78.0905 158.953C82.3096 155.138 87.3376 153.63 92.2619 154.704C97.1862 155.778 101.68 159.362 104.928 164.805C108.176 170.249 109.963 177.191 109.963 184.372Z" fill="#FF6584"/>
<path d="M183.979 475.586C185.082 475.586 185.976 474.298 185.976 472.708C185.976 471.119 185.082 469.83 183.979 469.83C182.877 469.83 181.983 471.119 181.983 472.708C181.983 474.298 182.877 475.586 183.979 475.586Z" fill="#F0F0F0"/>
<path d="M212.615 515.52C213.718 515.52 214.611 514.232 214.611 512.642C214.611 511.053 213.718 509.764 212.615 509.764C211.513 509.764 210.619 511.053 210.619 512.642C210.619 514.232 211.513 515.52 212.615 515.52Z" fill="#F0F0F0"/>
<path d="M35.6357 401.809C36.7381 401.809 37.6317 400.521 37.6317 398.931C37.6317 397.342 36.7381 396.053 35.6357 396.053C34.5333 396.053 33.6396 397.342 33.6396 398.931C33.6396 400.521 34.5333 401.809 35.6357 401.809Z" fill="#F0F0F0"/>
<path d="M133.749 348.338C134.851 348.338 135.745 347.049 135.745 345.46C135.745 343.871 134.851 342.582 133.749 342.582C132.647 342.582 131.753 343.871 131.753 345.46C131.753 347.049 132.647 348.338 133.749 348.338Z" fill="#F0F0F0"/>
<path d="M123.891 62.7071C124.993 62.7071 125.887 61.4186 125.887 59.8291C125.887 58.2397 124.993 56.9512 123.891 56.9512C122.788 56.9512 121.895 58.2397 121.895 59.8291C121.895 61.4186 122.788 62.7071 123.891 62.7071Z" fill="#F0F0F0"/>
<path d="M244.537 288.099C245.639 288.099 246.533 286.81 246.533 285.221C246.533 283.631 245.639 282.343 244.537 282.343C243.435 282.343 242.541 283.631 242.541 285.221C242.541 286.81 243.435 288.099 244.537 288.099Z" fill="#F0F0F0"/>
<path d="M259.56 338.186C260.662 338.186 261.556 336.897 261.556 335.308C261.556 333.718 260.662 332.43 259.56 332.43C258.457 332.43 257.563 333.718 257.563 335.308C257.563 336.897 258.457 338.186 259.56 338.186Z" fill="#F0F0F0"/>
<path d="M79.6373 69.0164C79.6519 83.5475 77.2706 97.8754 72.6896 110.819C72.084 112.524 71.4424 114.201 70.7649 115.848C64.0565 132.182 54.0196 145.138 42.021 152.953C35.2437 145.866 28.9102 137.937 23.0931 129.256C22.2058 127.929 21.3279 126.574 20.4594 125.188C19.6333 123.862 18.8164 122.508 18.0185 121.127C7.63435 103.238 -0.0364887 81.2065 2.26396 58.505C4.55937 35.8643 16.7979 17.014 31.3693 7.95775C39.7911 2.7257 48.8748 0.383835 58.0711 0.0454102C65.2617 9.2012 70.9304 20.5737 74.6565 33.3194C75.126 34.9235 75.5578 36.5479 75.9663 38.1927C78.4026 48.0893 79.6442 58.5149 79.6373 69.0164Z" fill="#F9A826"/>
<path d="M108.743 73.7539C108.743 87.8527 99.1944 100.929 81.8532 110.588C78.384 112.524 74.6706 114.277 70.765 115.847C56.1465 121.722 38.7489 124.978 20.4595 125.188C19.6334 123.861 18.8165 122.507 18.0186 121.127C18.2157 121.133 18.4128 121.133 18.6099 121.133C38.4721 121.133 57.3155 117.505 72.6897 110.818C75.5298 109.58 78.2527 108.239 80.8392 106.798C96.7814 97.9242 105.926 85.8763 105.926 73.7539C105.926 61.6315 96.7814 49.5903 80.8392 40.7101C79.2619 39.8301 77.6377 38.9908 75.9664 38.1922C75.558 36.5474 75.1261 34.923 74.6567 33.3188C77.154 34.4424 79.5529 35.6427 81.8533 36.9197C99.1944 46.5783 108.743 59.6619 108.743 73.7539Z" fill="#E4E4E4"/>
<path d="M21.5522 23.4497C22.6546 23.4497 23.5483 22.1612 23.5483 20.5718C23.5483 18.9823 22.6546 17.6938 21.5522 17.6938C20.4498 17.6938 19.5562 18.9823 19.5562 20.5718C19.5562 22.1612 20.4498 23.4497 21.5522 23.4497Z" fill="#F0F0F0"/>
<path d="M63.333 41.7251C64.4353 41.7251 65.329 40.4366 65.329 38.8472C65.329 37.2577 64.4353 35.9692 63.333 35.9692C62.2306 35.9692 61.3369 37.2577 61.3369 38.8472C61.3369 40.4366 62.2306 41.7251 63.333 41.7251Z" fill="#F0F0F0"/>
<path d="M41.7383 95.9382C52.4585 95.9382 61.149 83.4082 61.149 67.9515C61.149 52.4949 52.4585 39.9648 41.7383 39.9648C31.0181 39.9648 22.3276 52.4949 22.3276 67.9515C22.3276 83.4082 31.0181 95.9382 41.7383 95.9382Z" fill="#F0F0F0"/>
<path opacity="0.3" d="M400.205 216.075C395.848 217.93 386.244 219.297 375.681 220.136C365.124 220.969 353.542 221.334 342.107 221.686C322.09 222.309 302.075 222.934 282.061 223.561C279.309 223.649 276.549 223.73 273.78 223.805C272.395 222.485 271.01 221.145 269.639 219.778C272.094 219.798 274.55 219.778 276.986 219.71C287.393 219.412 296.205 218.241 306.241 217.686C321.686 216.827 338.361 217.503 354.458 217.849C370.555 218.201 388.896 218.072 400.205 216.075Z" fill="#F0F0F0"/>
<path opacity="0.3" d="M92.9886 429.439L29.1816 352.799L91.1691 432.509C91.2891 432.8 91.4556 433.046 91.6548 433.227C91.8539 433.407 92.0801 433.516 92.3143 433.545C92.5486 433.574 92.7843 433.522 93.0019 433.394C93.2195 433.265 93.4127 433.064 93.5654 432.806C93.7182 432.548 93.8262 432.242 93.8803 431.912C93.9345 431.582 93.9334 431.238 93.877 430.909C93.8206 430.58 93.7106 430.275 93.5561 430.019C93.4016 429.763 93.207 429.565 92.9886 429.439H92.9886Z" fill="#F0F0F0"/>
<path d="M44.5551 139.191C45.6575 139.191 46.5512 137.903 46.5512 136.313C46.5512 134.724 45.6575 133.436 44.5551 133.436C43.4527 133.436 42.5591 134.724 42.5591 136.313C42.5591 137.903 43.4527 139.191 44.5551 139.191Z" fill="#F0F0F0"/>
<path d="M212.196 469.784L220.452 469.784L224.38 423.868L212.194 423.869L212.196 469.784Z" fill="#FFB6B6"/>
<path d="M210.09 465.897L212.414 465.897L221.487 460.577L226.349 465.896H226.35C229.098 465.896 231.733 467.47 233.677 470.272C235.62 473.074 236.712 476.874 236.712 480.836V481.321L210.09 481.323L210.09 465.897Z" fill="#2F2E41"/>
<path d="M150.366 469.784L142.11 469.784L138.182 423.868L150.367 423.869L150.366 469.784Z" fill="#FFB6B6"/>
<path d="M152.471 481.323L125.85 481.321V480.836C125.85 476.874 126.942 473.074 128.885 470.272C130.828 467.47 133.464 465.896 136.212 465.896H136.213L141.075 460.577L150.148 465.897L152.472 465.897L152.471 481.323Z" fill="#2F2E41"/>
<path d="M179.949 117.899L171.589 127.078L149.382 135.557C149.382 135.557 157.339 216.075 153.584 221.49C149.828 226.905 153.215 227.05 152.461 234.085C151.706 241.119 148.699 259.69 148.699 259.69H214.978C214.978 259.69 215.512 248.148 212.245 245.649C208.978 243.149 215.257 231.483 212.587 229.532C209.917 227.582 213.672 210.661 213.672 210.661L221.811 155.261L200.163 130.84L196.871 119.403L179.949 117.899Z" fill="#F9A826"/>
<path d="M190.38 189.849C191.977 189.849 193.272 187.982 193.272 185.679C193.272 183.376 191.977 181.509 190.38 181.509C188.782 181.509 187.487 183.376 187.487 185.679C187.487 187.982 188.782 189.849 190.38 189.849Z" fill="#F2F2F2"/>
<path d="M148.699 259.69L145.966 361.164C145.966 361.164 134.165 436.111 136.215 438.082C138.265 440.052 139.133 451.801 139.133 451.801L150.749 453.771C150.749 453.771 150.749 445.89 153.482 442.934C156.215 439.979 181.497 301.068 181.497 301.068L206.162 435.374C206.162 435.374 206.779 442.934 208.829 442.934C210.879 442.934 211.562 453.771 211.562 453.771H223.178V442.934C223.178 442.934 228.397 440.549 226.348 432.667C224.298 424.786 214.979 259.69 214.979 259.69H148.699Z" fill="#2F2E41"/>
<path d="M188.63 111.852C196.366 111.852 202.637 102.81 202.637 91.6558C202.637 80.5017 196.366 71.4595 188.63 71.4595C180.893 71.4595 174.622 80.5017 174.622 91.6558C174.622 102.81 180.893 111.852 188.63 111.852Z" fill="#FFB6B6"/>
<path opacity="0.1" d="M212.587 182.353L215.32 185.309L216.687 171.516L212.587 182.353Z" fill="black"/>
<path d="M150.692 135.478C150.692 135.478 147.276 134.493 145.226 143.36C143.176 152.227 135.66 185.723 135.66 191.634C135.66 197.545 182.468 223.626 182.468 223.626L177.597 198.992L156.158 182.767L150.692 135.478Z" fill="#F9A826"/>
<path d="M184.639 219.974C189.047 219.974 192.62 214.823 192.62 208.468C192.62 202.113 189.047 196.961 184.639 196.961C180.232 196.961 176.659 202.113 176.659 208.468C176.659 214.823 180.232 219.974 184.639 219.974Z" fill="#FFB6B6"/>
<path opacity="0.1" d="M155.534 170.564L156.159 182.767L175.984 197.77L158.35 180.717L155.534 170.564Z" fill="black"/>
<path d="M203.193 172.304H202.936V162.146C202.936 161.373 202.83 160.609 202.625 159.896C202.421 159.182 202.12 158.534 201.742 157.988C201.363 157.442 200.913 157.009 200.419 156.714C199.924 156.418 199.394 156.266 198.858 156.266H183.931C183.396 156.266 182.866 156.418 182.371 156.714C181.876 157.009 181.427 157.442 181.048 157.988C180.669 158.534 180.369 159.182 180.164 159.896C179.959 160.609 179.854 161.373 179.854 162.145V217.875C179.854 218.647 179.959 219.412 180.164 220.125C180.369 220.838 180.669 221.486 181.048 222.032C181.426 222.578 181.876 223.011 182.371 223.307C182.865 223.602 183.396 223.754 183.931 223.754H198.858C199.394 223.754 199.924 223.602 200.419 223.307C200.913 223.011 201.363 222.578 201.742 222.032C202.12 221.486 202.421 220.838 202.625 220.125C202.83 219.412 202.936 218.647 202.936 217.875V179.535H203.193V172.304Z" fill="#F0F0F0"/>
<path d="M221.811 155.26C221.811 155.26 223.861 157.231 225.228 166.097C226.594 174.964 235.477 208.46 232.061 216.342C228.644 224.223 227.636 232.635 216.02 220.813L199.946 199.594L211.562 183.831L216.345 188.757L221.811 155.26Z" fill="#F9A826"/>
<path d="M191.577 181.105C193.463 181.105 194.993 178.899 194.993 176.179C194.993 173.458 193.463 171.253 191.577 171.253C189.69 171.253 188.16 173.458 188.16 176.179C188.16 178.899 189.69 181.105 191.577 181.105Z" fill="#F9A826"/>
<path d="M201.467 198.477C205.874 198.477 209.447 193.325 209.447 186.97C209.447 180.615 205.874 175.464 201.467 175.464C197.059 175.464 193.486 180.615 193.486 186.97C193.486 193.325 197.059 198.477 201.467 198.477Z" fill="#FFB6B6"/>
<path opacity="0.1" d="M155.157 207.394L178.067 222.005L154.521 215.37L155.157 207.394Z" fill="black"/>
<path d="M174.498 95.6808L172.575 85.1274C172.073 82.3738 171.567 79.5645 171.679 76.7221C171.792 73.8797 172.628 70.9465 174.289 69.4066C175.95 67.8668 178.486 68.2305 179.554 70.6245C179.758 66.8019 182.169 63.8615 184.728 62.8198C187.287 61.7782 190.004 62.1901 192.661 62.3659C195.317 62.5416 198.121 62.4189 200.413 60.4766C200.588 61.2323 200.576 62.0519 200.381 62.7968C200.185 63.5418 199.817 64.1665 199.339 64.5656C199.909 64.7898 200.516 64.6935 201.039 64.2962C201.561 63.8988 201.96 63.2301 202.153 62.4254C202.17 64.6393 201.603 66.7797 200.566 68.4124C201.555 67.7047 202.692 67.553 203.754 67.9869C204.817 68.4207 205.729 69.409 206.315 70.7594C207.485 73.6839 206.829 77.3567 206.145 80.5853L202.631 97.1562C202.099 94.6372 201.998 91.9777 201.713 89.3764C201.428 86.775 200.921 84.1185 199.73 82.1218C198.539 80.125 196.516 78.9687 194.824 79.9601C193.874 80.5163 193.15 81.6448 192.293 82.4547C190.535 84.1165 188.297 84.3549 186.208 84.0167C184.118 83.6786 182.082 82.8206 179.993 82.4779C178.684 82.2634 177.224 82.3202 176.237 83.5765C175.559 84.5935 175.11 85.884 174.952 87.277C174.486 90.0533 174.303 92.9127 174.408 95.7651" fill="#2F2E41"/>
</g>
<defs>
<clipPath id="clip0_50_645">
<rect width="435" height="532" fill="white"/>
</clipPath>
</defs>
</svg>
