<svg width="392" height="657" viewBox="0 0 392 657" fill="none" xmlns="http://www.w3.org/2000/svg">
<g clip-path="url(#clip0_50_846)">
<path d="M-424.969 304.978C-420.978 260.057 -400.88 216.647 -372.21 180.745C-371.011 179.244 -369.799 177.756 -368.571 176.282C-365.81 172.966 -362.978 169.713 -360.074 166.522C-356.521 162.591 -352.865 158.75 -349.105 155C-346.044 151.913 -342.912 148.893 -339.709 145.938C-337.237 143.634 -334.736 141.375 -332.207 139.16C-301.782 112.372 -266.831 90.2661 -230.819 70.9335C-160.541 33.2173 -83.5105 4.64606 -3.38696 0.485413C76.7259 -3.66467 160.36 18.6918 219.112 71.9344C298.294 143.686 320.393 263.362 288.245 363.956C266.863 430.879 223.221 491.421 163.827 530.962C104.946 570.159 30.6657 587.803 -39.6337 576.27C-95.7533 609.502 -169.22 610.138 -230.231 585.54C-262.785 572.412 -292.001 552.891 -317.631 529.304C-329.369 518.48 -340.352 506.904 -350.507 494.654C-351.545 493.413 -352.572 492.162 -353.589 490.9C-357.848 485.655 -361.969 480.302 -365.95 474.842C-371.664 467.011 -377.09 459.006 -382.227 450.827C-383.639 448.575 -385.041 446.312 -386.411 444.028C-387.332 442.496 -388.263 440.952 -389.172 439.399C-389.193 439.367 -389.207 439.331 -389.215 439.294C-403.459 414.884 -415.102 388.836 -421.17 361.61C-422.24 356.792 -423.139 351.954 -423.835 347.074V347.063C-424.445 342.924 -424.905 338.763 -425.216 334.582C-425.947 324.723 -425.865 314.824 -424.969 304.978Z" fill="#3F3D56"/>
<path d="M148.449 302.695C95.8464 302.695 53.2038 344.245 53.2038 395.499C53.2038 446.754 95.8464 488.304 148.449 488.304C201.051 488.304 243.694 446.754 243.694 395.499C243.694 344.245 201.051 302.695 148.449 302.695Z" fill="#F2F2F2"/>
<path d="M63.9053 401.756C63.9044 390.664 66.1459 379.68 70.5018 369.432C74.8578 359.184 81.2428 349.873 89.2923 342.03C97.3418 334.186 106.898 327.965 117.416 323.721C127.933 319.476 139.205 317.292 150.589 317.293C160.735 317.299 170.803 319.028 180.34 322.403C195.251 327.696 208.387 336.874 218.316 348.937C228.245 361 234.587 375.486 236.653 390.818C238.718 406.151 236.426 421.741 230.028 435.892C223.63 450.043 213.37 462.213 200.365 471.076C187.36 479.939 172.109 485.156 156.272 486.159C140.435 487.161 124.62 483.911 110.547 476.763C96.4746 469.614 84.6845 458.84 76.4605 445.615C68.2365 432.39 63.8938 417.219 63.9053 401.756Z" fill="white"/>
<path d="M165.571 403.841C150.796 403.841 138.817 415.512 138.817 429.91C138.817 444.307 150.796 455.979 165.571 455.979C180.347 455.979 192.326 444.307 192.326 429.91C192.326 415.512 180.347 403.841 165.571 403.841Z" fill="#E4E4E4"/>
<path d="M67.2871 425.186C73.0855 422.468 79.695 421.877 85.9043 423.521C92.1136 425.166 97.5066 428.936 101.095 434.14C104.684 439.344 106.227 445.634 105.442 451.857C104.658 458.08 101.598 463.819 96.8238 468.022C82.6357 457.093 72.3086 442.116 67.2871 425.186Z" fill="#F2F2F2"/>
<path d="M121.695 364.216C116.375 364.216 112.063 368.418 112.063 373.601C112.063 378.784 116.375 382.986 121.695 382.986C127.014 382.986 131.326 378.784 131.326 373.601C131.326 368.418 127.014 364.216 121.695 364.216Z" fill="#E4E4E4"/>
<path d="M161.291 320.421C161.292 319.597 161.403 318.777 161.623 317.981C168.013 318.76 174.293 320.244 180.34 322.403C179.838 324.667 178.494 326.67 176.567 328.027C174.64 329.384 172.266 329.999 169.902 329.753C167.537 329.507 165.35 328.418 163.76 326.695C162.171 324.973 161.291 322.738 161.291 320.421Z" fill="#F2F2F2"/>
<path d="M218.01 405.926C218.01 401.165 219.868 396.582 223.206 393.105C226.544 389.628 231.113 387.517 235.989 387.199C238.196 399.594 237.552 412.311 234.105 424.435C229.608 423.705 225.523 421.444 222.576 418.055C219.629 414.666 218.011 410.368 218.01 405.926Z" fill="#F2F2F2"/>
<path d="M150.888 87.5438C149.61 87.5438 148.573 88.5536 148.573 89.7993C148.573 91.0449 149.61 92.0547 150.888 92.0547C152.167 92.0547 153.203 91.0449 153.203 89.7993C153.203 88.5536 152.167 87.5438 150.888 87.5438Z" fill="#F0F0F0"/>
<path d="M65.1101 287.674C62.9219 287.674 61.148 289.403 61.148 291.535C61.148 293.667 62.9219 295.396 65.1101 295.396C67.2983 295.396 69.0723 293.667 69.0723 291.535C69.0723 289.403 67.2983 287.674 65.1101 287.674Z" fill="#F9A826"/>
<path d="M208.512 204.483C198.179 204.483 189.803 212.645 189.803 222.713C189.803 232.782 198.179 240.944 208.512 240.944C218.846 240.944 227.222 232.782 227.222 222.713C227.222 212.645 218.846 204.483 208.512 204.483Z" fill="#F9A826"/>
<path d="M105.942 200.16C104.663 200.16 103.627 201.17 103.627 202.416C103.627 203.662 104.663 204.671 105.942 204.671C107.22 204.671 108.256 203.662 108.256 202.416C108.256 201.17 107.22 200.16 105.942 200.16Z" fill="#F0F0F0"/>
<path d="M8.55585 71.9022C7.27743 71.9022 6.24106 72.912 6.24106 74.1577C6.24106 75.4033 7.27743 76.4131 8.55585 76.4131C9.83426 76.4131 10.8706 75.4033 10.8706 74.1577C10.8706 72.912 9.83426 71.9022 8.55585 71.9022Z" fill="#F0F0F0"/>
<path d="M42.8013 531.754C41.5229 531.754 40.4865 532.764 40.4865 534.01C40.4865 535.255 41.5229 536.265 42.8013 536.265C44.0798 536.265 45.1162 535.255 45.1162 534.01C45.1162 532.764 44.0798 531.754 42.8013 531.754Z" fill="#F0F0F0"/>
<path d="M74.6075 153.606C73.329 153.606 72.2927 154.616 72.2927 155.862C72.2927 157.107 73.329 158.117 74.6075 158.117C75.886 158.117 76.9224 157.107 76.9224 155.862C76.9224 154.616 75.886 153.606 74.6075 153.606Z" fill="#F0F0F0"/>
<path d="M-377.078 101.287C-363.26 101.287 -348.115 101.796 -331.642 102.814C-246.442 108.085 -136.082 126.414 -20.8909 154.422C94.2996 182.429 200.559 216.771 278.313 251.12C316.189 267.853 345.258 283.692 364.713 298.197C385.311 313.554 394.321 326.94 391.493 337.981C385.984 359.492 337.202 364.198 297.25 364.358L297.236 361.23C352.102 361.01 384.469 352.484 388.378 337.224C393.356 317.787 352.755 287.442 276.987 253.969C199.404 219.696 93.3401 185.42 -21.6685 157.456C-136.677 129.493 -246.834 111.196 -331.846 105.936C-414.868 100.797 -465.342 108.999 -470.32 128.436C-474.453 144.574 -447.206 168.348 -393.6 195.379L-395.076 198.157C-434.027 178.516 -479.24 150.345 -473.436 127.679C-470.608 116.637 -456.2 108.946 -430.613 104.819C-416.027 102.466 -398.111 101.287 -377.078 101.287Z" fill="#F9A826"/>
<path d="M135.091 63.3055C173.188 63.3045 208.606 64.5784 240.312 67.1486C281.756 70.509 314.598 75.9111 337.923 83.2032C362.619 90.9251 375.721 100.583 376.865 111.908C379.094 133.971 334.77 154.374 297.195 167.605L296.104 164.662C347.704 146.493 375.251 127.867 373.67 112.214C371.656 92.2774 322.952 76.9885 240.046 70.2667C155.155 63.3839 43.4379 65.8228 -74.5268 77.1382C-192.492 88.4506 -302.554 107.28 -384.438 130.157C-464.408 152.499 -509.118 176.747 -507.104 196.684C-505.432 213.236 -471.572 226.707 -411.761 234.618L-412.193 237.717C-455.652 231.97 -507.951 220.239 -510.299 196.99C-511.444 185.664 -500.525 173.703 -477.849 161.439C-456.43 149.855 -425.3 138.318 -385.324 127.15C-303.258 104.222 -192.993 85.356 -74.8413 74.0242C-0.72226 66.9164 70.9639 63.3055 135.091 63.3055Z" fill="#F9A826"/>
<path d="M37.2853 620.539C26.9521 620.539 18.5755 628.701 18.5755 638.77C18.5755 648.838 26.9521 657 37.2853 657C47.6184 657 55.9951 648.838 55.9951 638.77C55.9951 628.701 47.6184 620.539 37.2853 620.539Z" fill="#E6E6E6"/>
<path d="M371.178 186.756C360.845 186.756 352.469 194.918 352.469 204.986C352.469 215.055 360.845 223.217 371.178 223.217C381.512 223.217 389.888 215.055 389.888 204.986C389.888 194.918 381.512 186.756 371.178 186.756Z" fill="#E6E6E6"/>
<path d="M255.6 532.72C249.274 532.72 244.147 537.716 244.147 543.88C244.147 550.043 249.274 555.04 255.6 555.04C261.925 555.04 267.053 550.043 267.053 543.88C267.053 537.716 261.925 532.72 255.6 532.72Z" fill="#FF6584"/>
<path d="M309.108 109.364C302.783 109.364 297.655 114.36 297.655 120.524C297.655 126.687 302.783 131.684 309.108 131.684C315.434 131.684 320.562 126.687 320.562 120.524C320.562 114.36 315.434 109.364 309.108 109.364Z" fill="#FF6584"/>
</g>
<defs>
<clipPath id="clip0_50_846">
<rect width="916" height="657" fill="white" transform="matrix(-1 0 0 -1 392 657)"/>
</clipPath>
</defs>
</svg>
