<svg width="30" height="32" viewBox="0 0 30 32" fill="none" xmlns="http://www.w3.org/2000/svg">
<path d="M27.1056 0.25H2.93603C1.82854 0.25 0.928711 1.26953 0.928711 2.5211V29.4789C0.928711 30.7305 1.82854 31.75 2.93603 31.75H27.1056C28.2131 31.75 29.1192 30.7305 29.1192 29.4789V2.5211C29.1192 1.26953 28.2131 0.25 27.1056 0.25ZM9.44877 27.25H5.27055V12.2172H9.45509V27.25H9.44877ZM7.35964 10.164C6.01936 10.164 4.93705 8.94766 4.93705 7.45702C4.93705 5.96638 6.01936 4.75 7.35964 4.75C8.69367 4.75 9.78227 5.96638 9.78227 7.45702C9.78227 8.95468 8.69998 10.164 7.35964 10.164ZM25.1108 27.25H20.9326V19.9375C20.9326 18.1938 20.9012 15.9508 18.7617 15.9508C16.5845 15.9508 16.251 17.8492 16.251 19.811V27.25H12.0727V12.2172H16.0811V14.2703H16.1377C16.6977 13.089 18.0632 11.8445 20.0957 11.8445C24.3243 11.8445 25.1108 14.9594 25.1108 19.0094V27.25Z" fill="white"/>
</svg>
