<svg width="36" height="40" viewBox="0 0 36 40" fill="none" xmlns="http://www.w3.org/2000/svg">
<path d="M22.6454 14.4837C26.7575 19.1563 26.701 26.6476 22.6702 31.2485C22.6626 31.2579 22.6537 31.268 22.6454 31.2774L18.0204 36.5274C13.9412 41.1578 7.30453 41.1572 3.22592 36.5274C-0.853302 31.8977 -0.853302 24.3634 3.22592 19.7337L5.77972 16.8348C6.45695 16.066 7.62325 16.577 7.65821 17.6634C7.70281 19.0479 7.92154 20.4389 8.32512 21.7822C8.46181 22.237 8.36415 22.7402 8.06476 23.08L7.16405 24.1024C5.23518 26.2919 5.17469 29.8571 7.08456 32.068C9.0133 34.3008 12.1835 34.314 14.127 32.1079L18.752 26.8587C20.6922 24.6562 20.6841 21.0964 18.752 18.9032C18.4973 18.6146 18.2407 18.3904 18.0403 18.2338C17.8985 18.1232 17.7815 17.9766 17.6985 17.8056C17.6155 17.6346 17.5688 17.444 17.5622 17.2489C17.5349 16.4234 17.7926 15.5727 18.3673 14.9203L19.8163 13.2754C20.1963 12.8441 20.7924 12.7911 21.233 13.1402C21.7376 13.5402 22.2102 13.9897 22.6454 14.4837ZM32.3452 3.47261C28.2666 -1.15722 21.6299 -1.15785 17.5507 3.47261L12.9257 8.7226C12.9174 8.73198 12.9085 8.74213 12.9009 8.75151C8.87014 13.3524 8.81364 20.8438 12.9257 25.5163C13.3609 26.0103 13.8335 26.4598 14.338 26.8598C14.7787 27.2088 15.3748 27.1558 15.7547 26.7245L17.2037 25.0796C17.7784 24.4273 18.0361 23.5766 18.0089 22.751C18.0022 22.5559 17.9556 22.3653 17.8726 22.1943C17.7896 22.0233 17.6725 21.8767 17.5307 21.7662C17.3303 21.6095 17.0737 21.3853 16.819 21.0967C14.8869 18.9035 14.8788 15.3437 16.819 13.1413L21.444 7.89205C23.3876 5.68589 26.5577 5.69917 28.4865 7.9319C30.3964 10.1428 30.3359 13.708 28.407 15.8975L27.5063 16.9199C27.2069 17.2598 27.1092 17.7629 27.2459 18.2177C27.6495 19.561 27.8682 20.952 27.9128 22.3366C27.9479 23.423 29.1141 23.9339 29.7913 23.1652L32.3451 20.2662C36.4244 15.6366 36.4244 8.10229 32.3452 3.47261Z" fill="white"/>
</svg>
